<svg width="36" height="36" fill="none" xmlns="http://www.w3.org/2000/svg"><path d="M0 0h36v36H0V0z" fill="#C74634"/><path fill-rule="evenodd" clip-rule="evenodd" d="M7.875 8.625a2.25 2.25 0 00-2.25 2.25v16c0 .621.504 1.125 1.125 1.125h.284c.298 0 .585-.119.796-.33l2.761-2.76a2.25 2.25 0 011.59-.66h15.944a2.25 2.25 0 002.25-2.25V10.875a2.25 2.25 0 00-2.25-2.25H7.875zM24.75 18a2.25 2.25 0 100-4.5 2.25 2.25 0 000 4.5zm-4.5-2.25a2.25 2.25 0 11-4.5 0 2.25 2.25 0 014.5 0zm-9 2.25a2.25 2.25 0 100-4.5 2.25 2.25 0 000 4.5z" fill="#fff"/></svg>